<?xml version="1.0" standalone="no"?>
<!DOCTYPE svg PUBLIC "-//W3C//DTD SVG 20010904//EN"
 "http://www.w3.org/TR/2001/REC-SVG-20010904/DTD/svg10.dtd">
<svg version="1.0" xmlns="http://www.w3.org/2000/svg"
 width="30px" height="30px" viewBox="0 0 64.000000 64.000000"
 preserveAspectRatio="xMidYMid meet">

<g transform="translate(0.000000,64.000000) scale(0.100000,-0.100000)"
fill="#ffffff" stroke="none">
<path d="M223 602 c-251 -90 -272 -432 -35 -549 81 -40 183 -40 264 0 107 53
163 144 163 267 0 85 -21 142 -74 203 -72 81 -213 117 -318 79z m22 -139 c29
-44 31 -60 9 -84 -13 -14 -13 -22 -4 -41 18 -34 51 -68 83 -85 26 -13 31 -13
48 2 22 21 53 15 94 -20 l30 -25 -40 -35 c-22 -19 -47 -35 -55 -35 -34 0 -120
51 -170 100 -48 49 -100 135 -100 169 0 16 58 91 70 91 5 0 21 -17 35 -37z
m181 7 c32 -21 74 -90 74 -124 0 -30 -21 -13 -35 28 -17 49 -42 74 -91 91 -21
7 -40 19 -42 25 -6 18 52 5 94 -20z m-22 -66 c14 -15 26 -37 26 -50 0 -33 -13
-30 -27 7 -8 19 -23 34 -42 42 -37 14 -40 27 -7 27 13 0 35 -12 50 -26z"/>
</g>
</svg>
